<?xml version="1.0" encoding="UTF-8" standalone="no"?>
<svg
   id="svg4171"
   version="1.1"
   xml:space="preserve"
   width="128"
   height="128"
   viewBox="0 0 128 128"
   sodipodi:docname="go-deepl-logo.svg"
   inkscape:version="1.4.2 (ebf0e940d0, 2025-05-08)"
   xmlns:inkscape="http://www.inkscape.org/namespaces/inkscape"
   xmlns:sodipodi="http://sodipodi.sourceforge.net/DTD/sodipodi-0.dtd"
   xmlns="http://www.w3.org/2000/svg"
   xmlns:svg="http://www.w3.org/2000/svg"
   xmlns:rdf="http://www.w3.org/1999/02/22-rdf-syntax-ns#"
   xmlns:cc="http://creativecommons.org/ns#"
   xmlns:dc="http://purl.org/dc/elements/1.1/"><sodipodi:namedview
     id="namedview22"
     pagecolor="#ffffff"
     bordercolor="#666666"
     borderopacity="1.0"
     inkscape:pageshadow="2"
     inkscape:pageopacity="0.0"
     inkscape:pagecheckerboard="true"
     showgrid="false"
     inkscape:zoom="5.6568542"
     inkscape:cx="44.370951"
     inkscape:cy="79.72629"
     inkscape:window-width="2327"
     inkscape:window-height="1248"
     inkscape:window-x="0"
     inkscape:window-y="0"
     inkscape:window-maximized="1"
     inkscape:current-layer="g4183"
     inkscape:showpageshadow="2"
     inkscape:deskcolor="#d1d1d1"
     inkscape:lockguides="false" /><metadata
     id="metadata4177"><rdf:RDF><cc:Work
         rdf:about=""><dc:format>image/svg+xml</dc:format><dc:type
           rdf:resource="http://purl.org/dc/dcmitype/StillImage" /></cc:Work></rdf:RDF></metadata><defs
     id="defs4175"><clipPath
       clipPathUnits="userSpaceOnUse"
       id="clipPath4187"><path
         d="M 0,425.197 H 708.661 V 0 H 0 Z"
         id="path4189" /></clipPath></defs><rect
     style="display:none;fill:#ffffff;fill-opacity:0.299386;stroke:none;stroke-width:0;stroke-miterlimit:4;stroke-dasharray:none;stroke-opacity:0.7"
     id="rect1873"
     width="128"
     height="128"
     x="0"
     y="0" /><g
     id="g4179"
     transform="matrix(1.4023237,0,0,-1.368095,-345.26151,341.81704)"><g
       id="g4183"
       style="fill:#042b48;fill-opacity:1"><path
         fill="#8cc5e7"
         d="m 337.48224,216.90231 c 0.16048,5.27093 -6.05459,4.20642 -6.55261,6.18503 -2.61278,10.00477 -8.79905,15.77736 -14.11746,19.31352 0,0 -2.47134,1.46117 -3.02054,1.78587 -5.56487,3.09439 -13.38639,5.44716 -22.2937,2.21444 -1.75364,-0.64733 -4.46287,5.69365 -8.27545,2.582 -4.45044,-3.63533 1.74144,-7.92292 0.37531,-9.89602 -2.50042,-3.53495 -4.86261,-9.57996 -7.09862,-15.58207 -3.85947,-10.13389 -21.44906,-29.46151 -12.3647,-46.77838 1.7069,-3.28086 8.13198,-8.333 14.04513,-12.02496 v 0 c 0,0 0.0275,-0.0162 0.0275,-0.0162 0,0 0.0275,-0.0162 0.0275,-0.0162 v 0 c 6.05914,-3.38661 12.59488,-5.99751 15.99543,-5.73641 18.01807,1.29268 22.59191,28.3158 28.01656,37.52429 3.19709,5.43387 6.38306,10.99182 7.6478,15.25735 0.70712,2.36275 7.38083,-0.91722 7.58792,5.18781 z"
         id="path1418"
         style="fill-opacity:1;stroke-width:0.327947" /><g
         id="g1426"
         transform="matrix(0.25015944,-0.19390754,-0.18579308,-0.2724537,294.41949,264.67696)"
         style="fill:#042b48;fill-opacity:1"><path
           fill="#e0dedc"
           d="m 143.2,54.3 c -33.4,3.9 -28.9,38.7 -16,50 24,21 49,0 46.2,-21.2 -2.5,-20.4 -19.8,-30 -30.2,-28.8 z"
           id="path1420" /><circle
           fill="#111212"
           cx="145.5"
           cy="84.300003"
           r="11.4"
           id="circle1422" /><circle
           fill="#ffffff"
           cx="142.5"
           cy="79.400002"
           r="3.5999999"
           id="circle1424" /></g><g
         id="g1434"
         transform="matrix(0.27471161,-0.15720497,-0.14606672,-0.29565961,287.08163,260.83875)"
         style="fill:#042b48;fill-opacity:1"><path
           fill="#b8937f"
           d="m 108.5,107 c -16,2.4 -21.7,7 -20.5,14.2 2,11.8 39.7,10.5 40.9,0.6 1,-8.5 -14.1,-15.7 -20.4,-14.8 z"
           id="path1428" /><path
           d="m 98.2,111.8 c -2.7,9.8 21.7,8.3 21.1,2 -0.3,-3.7 -3.6,-8.4 -12.3,-8.2 -3.4,0.1 -7.6,1.6 -8.8,6.2 z"
           id="path1430" /><path
           fill="#e0dedc"
           d="m 99,127.7 c -0.9,0.4 -2.4,10.2 2.2,10.7 3.1,0.3 11.6,1.3 13.6,0 3.9,-2.5 3.5,-8.5 1.3,-10 C 112.4,126 100,127.2 99,127.7 Z"
           id="path1432" /></g><g
         id="g1442"
         transform="matrix(0.27471161,-0.15720497,-0.14606672,-0.29565961,287.52183,261.27895)"
         style="fill:#042b48;fill-opacity:1"><path
           fill="#e0dedc"
           d="m 73.6,54.3 c 33.4,3.9 28.9,38.7 16,50 -24,21 -49,0 -46.2,-21.2 2.6,-20.4 19.9,-30 30.2,-28.8 z"
           id="path1436" /><circle
           fill="#111212"
           cx="71.400002"
           cy="84.300003"
           r="11.4"
           id="circle1438" /><circle
           fill="#ffffff"
           cx="74.400002"
           cy="79.400002"
           r="3.5999999"
           id="circle1440" /></g><path
         fill="#b8937f"
         d="m 298.5118,157.73668 c -0.4497,2.63261 -3.66651,1.75537 -7.58237,1.80454 -1.85039,0.0174 0.60145,-2.87765 5.98513,-3.07076 1.41798,-0.0439 1.75972,0.4032 1.59724,1.26622 z"
         id="path1448"
         style="fill-opacity:1;stroke-width:0.31476" /><path
         fill="#b8937f"
         d="m 261.21732,176.95966 c 2.94827,1.68814 3.42385,-1.20082 5.17115,-3.8694 0.81957,-1.26543 -3.27028,-1.76934 -5.80379,1.80425 -0.65998,0.94655 -0.34037,1.52215 0.63264,2.06515 z"
         id="path1450"
         style="fill-opacity:1;stroke-width:0.322775" /><path
         fill="#3c89bf"
         d="m 332.4673,218.61449 c -0.47156,-0.52656 0.31398,-0.86232 -0.36074,-2.94131 -0.24068,-0.77246 2.98363,-0.38004 2.65023,1.44152 -0.27082,1.52027 -1.84539,2.04207 -2.28949,1.49979 z"
         id="path1452"
         style="fill-opacity:1;stroke-width:0.322775" /><path
         fill="#3c89bf"
         d="m 287.52318,245.68396 c -0.0917,-0.72337 -0.82368,-0.26013 -1.92175,-2.10583 -0.41421,-0.67723 -2.12727,2.3069 -0.59188,3.13715 1.24833,0.71299 2.60531,-0.30796 2.51363,-1.03132 z"
         id="path1454"
         style="fill-opacity:1;stroke-width:0.322775" /><path
         d="m 283.64767,190.01584 c -2.50077,0 -4.52688,2.02598 -4.52688,4.52682 0,0.26379 0.0235,0.52215 0.0666,0.77335 l -10.82603,6.23379 c -0.78787,-0.66517 -1.80605,-1.06666 -2.91745,-1.06666 -2.50093,0 -4.52792,2.02701 -4.52792,4.52707 0,2.49971 2.02699,4.52681 4.52792,4.52681 2.50072,0 4.52769,-2.0271 4.52769,-4.52681 0,-0.28805 -0.0306,-0.5697 -0.0816,-0.84321 l 10.78676,-6.21061 c 0.79485,0.69293 1.83381,1.11313 2.97015,1.11313 2.49932,0 4.52606,-2.02682 4.52606,-4.52686 0,-2.50084 -2.02674,-4.52682 -4.52606,-4.52682 m -13.73088,-6.01233 c 0,-2.49974 -2.02617,-4.52677 -4.52695,-4.52677 -2.49899,0 -4.52608,2.02703 -4.52608,4.52677 0,2.50098 2.02709,4.52804 4.52608,4.52804 1.12393,0 2.15046,-0.41043 2.94166,-1.08822 l 7.89244,4.53585 c 0.33703,-0.97371 0.86107,-1.86065 1.52722,-2.61886 l -7.907,-4.54492 c 0.0451,-0.26367 0.0723,-0.53445 0.0723,-0.81189 m 27.22053,27.6276 -21.49636,12.2835 c -1.46362,0.83576 -3.26082,0.83576 -4.72455,0 l -21.49436,-12.2835 c -1.48436,-0.84751 -2.39995,-2.42661 -2.39995,-4.13441 v -24.98707 c 0,-1.70077 0.90749,-3.27342 2.38103,-4.12363 l 37.00492,-21.35951 0.007,15.17113 10.73839,6.18838 c 1.4754,0.85021 2.38365,2.42286 2.38365,4.12546 v 24.98524 c 0,1.7078 -0.9154,3.2869 -2.39885,4.13441"
         style="fill:#042b48;fill-opacity:1;fill-rule:nonzero;stroke:#ffffff;stroke-width:1.0845;stroke-linejoin:round;stroke-miterlimit:4;stroke-dasharray:none;stroke-opacity:1"
         id="path4213"
         inkscape:label="path_deepl" /><path
         fill="#b8937f"
         d="m 268.29063,198.68879 c -3.47574,-0.1676 -2.54201,7.64259 -0.23715,6.18367 1.1192,-0.71424 1.48279,-2.44603 1.63039,-3.92264 0.0822,-0.82031 -0.41605,-2.19021 -1.39321,-2.26103 z"
         id="path1446"
         style="fill-opacity:1;stroke-width:0.322775" /><path
         fill="#b8937f"
         d="m 297.74647,185.50081 c 1.93186,-2.8991 7.12776,3.27444 4.69119,4.10613 -1.18744,0.39976 -2.67696,-0.51226 -3.85098,-1.41993 -0.65223,-0.50428 -1.36592,-1.85468 -0.84021,-2.6862 z"
         id="path1444"
         style="display:inline;fill-opacity:1;stroke-width:0.322775" /></g></g></svg>
